<?xml version="1.0" standalone="no"?>
<!DOCTYPE svg PUBLIC "-//W3C//DTD SVG 20010904//EN" "http://www.w3.org/TR/2001/REC-SVG-20010904/DTD/svg10.dtd">
<svg xmlns="http://www.w3.org/2000/svg" version="1.0" width="512.000000pt" height="512.000000pt" viewBox="0 0 512.000000 512.000000" preserveAspectRatio="xMidYMid meet">
<metadata>
Created by potrace 1.16, written by Peter Selinger 2001-2019
<meta name="Producer" content="Online-Convert"/></metadata>
<g transform="translate(0.000000,512.000000) scale(0.100000,-0.100000)" fill="#000000" stroke="none">
<path d="M2245 4944 c-1045 -142 -1871 -935 -2055 -1974 -28 -156 -39 -512 -21 -671 37 -327 143 -651 301 -928 l69 -119 -190 -442 c-164 -384 -189 -448 -189 -493 0 -96 61 -157 157 -157 45 0 109 25 495 190 l443 190 55 -34 c246 -151 544 -263 845 -317 116 -21 160 -24 405 -24 245 0 289 3 405 24 1014 182 1784 952 1966 1966 21 116 24 160 24 405 0 245 -3 289 -24 405 -188 1050 -1014 1842 -2064 1980 -146 19 -481 19 -622 -1z m-362 -1138 c18 -8 109 -92 204 -187 145 -148 172 -180 178 -212 13 -69 -6 -104 -120 -217 l-105 -105 0 -51 c0 -160 130 -375 374 -620 245 -244 460 -374 621 -374 l50 0 100 101 c55 55 112 107 127 115 35 18 91 18 126 0 15 -8 104 -92 199 -188 145 -146 172 -179 178 -211 19 -100 -13 -153 -190 -326 -162 -157 -270 -198 -504 -188 -145 6 -236 27 -381 89 -494 210 -1098 813 -1308 1308 -71 167 -87 243 -87 420 0 165 8 204 62 315 29 58 268 301 323 328 43 20 109 22 153 3z"/>
</g>
</svg>
